<?xml version="1.0" encoding="UTF-8"?>
<svg id="Capa_1" xmlns="http://www.w3.org/2000/svg" version="1.1" viewBox="0 0 1920 1080">
  <!-- Generator: Adobe Illustrator 29.5.1, SVG Export Plug-In . SVG Version: 2.1.0 Build 141)  -->
  <defs>
    <style>
      .st0 {
        fill: #2c2a29;
      }

      .st1 {
        fill: #b0f2ae;
      }
    </style>
  </defs>
  <rect class="st1" width="1920" height="1080"/>
  <g>
    <path class="st0" d="M888.72,395.7l-68.66,261.02c-21.15,3.58-44.7,4.37-70.66,0l-47.9-175.2-48.7,175.2c-21.55,3.98-44.3,4.37-69.85,0l-69.06-261.02c22.36-4.77,43.91-4.37,64.66,0l44.7,183.94,43.11-183.94c21.55-4.37,47.11-4.77,69.45,0l51.89,184.74,36.32-184.74c22.36-4.77,44.3-4.37,64.66,0h.02Z"/>
    <path class="st0" d="M884.59,556.6c0-63.57,43.11-103.3,104.17-103.3s104.18,41.32,104.18,103.3-41.11,103.7-104.18,103.7-104.17-40.92-104.17-103.7ZM1032.68,556.6c0-32.57-15.96-51.65-43.91-51.65s-43.91,19.08-43.91,51.65,16.36,52.05,43.91,52.05,43.91-17.88,43.91-52.05Z"/>
    <path class="st0" d="M1424.63,514.88v141.44h-59.47v-120.37c0-21.05-13.58-31.78-37.52-31.78-11.18,0-21.96,2.39-30.74,5.95,3.19,8.74,4.79,18.28,4.79,28.61v117.6h-59.47v-120.37c0-21.05-13.58-31.78-37.52-31.78-9.18,0-17.96,1.19-25.55,3.18v148.98h-60.28l.4-176.79c23.96-16.69,61.47-25.82,93-25.82,25.15,0,46.7,8.34,62.28,21.85,20.36-13.11,48.7-21.85,72.64-21.85,43.51,0,77.43,23.04,77.43,61.18h0Z"/>
    <path class="st0" d="M1662.62,563.35c0,54.03-25.55,96.94-85.83,96.94-18.36,0-38.32-5.95-55.09-17.49v73.5c-13.58,10.72-44.3,19.46-60.28,19.46v-266.57c19.56-9.13,51.49-15.5,84.62-15.5,72.25,0,116.56,39.33,116.56,109.65h0ZM1602.74,556.2c0-29.4-15.96-54.83-53.09-54.83-8.39,0-17.96.8-27.94,2.39v103.7c7.98,1.59,17.57,2.78,29.53,2.78,31.93,0,51.49-14.7,51.49-54.03h0Z"/>
    <path class="st0" d="M1688.16,396.49c0-16.69,13.98-30.58,30.74-30.58s31.13,13.51,31.13,30.58-13.98,30.6-31.13,30.6-30.74-13.51-30.74-30.6ZM1688.97,459.27c8.38-3.58,18.76-5.57,30.34-5.57s21.55,1.99,29.94,5.57v197.05h-60.28v-197.05Z"/>
    <path class="st0" d="M440.5,399.02v72.52c0,4.35-2.13,8.45-5.7,10.97l-69.57,49.04s-.06.04-.09.06c-3.22,2.31-5.24,5.9-5.55,9.8-.04.37-.05.75-.05,1.12v111.69c0,3.71-3.02,6.72-6.75,6.72h-5.13c-2.4,0-4.62-1.28-5.83-3.33l-71.18-121.46s-.03-.05-.05-.06c-1.56-2.56-5.54-1.46-5.54,1.56v116.57c0,3.71-3.02,6.72-6.75,6.72h-5.13c-2.4,0-4.62-1.28-5.83-3.33l-74.06-126.35c-1.79-3.03-2.73-6.5-2.73-10.02v-122.22c0-3.72,3.02-6.72,6.75-6.72h5.13c2.39,0,4.61,1.27,5.83,3.32l71.18,121.46c1.54,2.64,5.59,1.55,5.59-1.5v-116.56c0-3.72,3.02-6.72,6.75-6.72h5.13c2.39,0,4.61,1.27,5.83,3.32l71.18,121.46c1.54,2.64,5.59,1.55,5.59-1.5v-63.74c0-6.46,3.14-12.52,8.44-16.25l59.67-42.07c1.14-.8,2.5-1.23,3.91-1.23h2.22c3.72,0,6.75,3,6.75,6.72Z"/>
  </g>
</svg>